Inverse Dynamics Generalized Forces
version=1
nRows=9
nColumns=34
inDegrees=no
endheader 
time	pelvis_tilt_moment	pelvis_list_moment	pelvis_rotation_moment	pelvis_tx_force	pelvis_ty_force	pelvis_tz_force	hip_flexion_l_moment	hip_adduction_l_moment	hip_rotation_l_moment	hip_flexion_r_moment	hip_adduction_r_moment	hip_rotation_r_moment	knee_angle_l_moment	knee_angle_r_moment	ankle_angle_l_moment	ankle_angle_r_moment	subtalar_angle_l_moment	subtalar_angle_r_moment	mtp_angle_l_moment	mtp_angle_r_moment	lumbar_extension_moment	lumbar_bending_moment	lumbar_rotation_moment	arm_flex_l_moment	arm_add_l_moment	arm_rot_l_moment	arm_flex_r_moment	arm_add_r_moment	arm_rot_r_moment	elbow_flex_l_moment	elbow_flex_r_moment	pro_sup_l_moment	pro_sup_r_moment	
          6.43000000	          0.00000047	         -0.00000408	          0.00002071	          0.00002233	          0.00001063	         -0.00005037	          2.35876169	         13.95129488	         -1.73973107	         42.30365207	        -19.70400631	          2.76387952	         -0.45974781	        -28.14585344	          3.11179054	          2.24481164	         -0.90098036	         -0.36810778	         -0.28213904	         -0.10742707	         18.82704247	         33.66554114	         43.32966708	         16.55811241	         63.82353959	        -13.72552926	        152.29320256	        149.97344390	        -82.38840375	         24.91853040	         32.64590953	         -2.50080607	         -2.57736488	
          6.44000000	         -0.00000010	         -0.00000167	          0.00001428	          0.00001946	          0.00001488	         -0.00002472	         -4.79215672	         18.44979922	         -1.66339312	         45.75605415	        -17.06563058	          1.22206961	         -4.64480736	        -28.50593943	          0.96281691	          2.68209285	          0.54447783	         -0.59725776	         -0.25969827	         -0.11033072	        -15.27504535	         36.46310357	         25.91964623	          7.61436427	         85.29545050	         -9.81837113	        133.61047277	         91.67783666	        -96.86299112	         28.59091820	         -1.30958175	         -2.19792709	         -2.53294329	
          6.45000000	          0.00000055	          0.00000185	          0.00000384	          0.00001393	          0.00001455	         -0.00000553	         -8.70618600	         18.80001655	         -1.56541711	         56.13029840	        -17.80982399	          0.53119526	        -37.96930307	        -32.83722074	          0.37344476	          1.83862614	          1.70835213	         -0.23646668	         -0.22982782	         -0.07447109	        -34.15490767	         46.74673952	          6.88818625	         -5.09348332	         50.17025858	         -2.90059310	         72.86738679	         31.46683476	        -64.08226572	         20.85400787	        -12.35155215	         -1.17612127	         -1.51199609	
          6.46000000	          0.00000167	          0.00000218	         -0.00000094	          0.00000721	          0.00001437	          0.00000101	        -30.18391294	         24.12819652	         -7.71332002	         64.51390103	        -20.25232573	         -1.09075256	        -26.85723565	        -33.08062800	          0.34662352	          0.30580835	          1.71703279	          0.38301721	         -0.27736822	          0.00474238	        -40.78305217	         53.97128304	          3.66980054	        -41.31485865	         32.93921128	          2.77059517	         34.22184813	         27.87038228	         -9.80674135	         16.57498679	         -8.32201450	          0.26018826	         -0.35075673	
          6.47000000	          0.00000023	          0.00000137	         -0.00000061	          0.00000031	          0.00001017	          0.00000436	        -47.35687943	         24.68216433	        -10.93752116	         74.17537220	        -19.71784787	         -1.77346458	        -18.80796672	        -32.77131478	          0.25595015	         -0.48586763	          1.53949749	          0.66433752	         -0.29468271	          0.06080365	        -45.15791760	         55.70480435	         -4.29772719	        -68.34705952	         44.29226705	          2.23174210	         22.98374943	         33.92374230	         22.21774439	         19.67414588	         -3.91651004	          0.16754872	          0.31325109	
          6.48000000	          0.00000014	         -0.00000202	          0.00000005	          0.00000091	          0.00000303	          0.00000089	        -65.26663974	         21.61452963	        -12.84361506	         80.53046791	        -17.46773433	         -2.33517781	         -7.04906317	        -24.69758768	         -0.19487779	         -0.00026865	          1.14073271	          0.14984721	         -0.25305220	          0.07431838	        -43.72732492	         56.60756058	        -22.68981360	        -85.83033598	         66.26202427	         -9.71596465	         24.05652425	         21.50555998	          6.72536734	         23.20034993	          0.98347160	         -3.10792796	         -0.28820116	
          6.49000000	         -0.00000020	          0.00000015	          0.00000006	          0.00000166	          0.00000013	          0.00000153	        -78.92415001	         23.37962897	        -13.88561956	         83.07102457	        -10.32327692	         -2.65025821	          6.33314241	        -22.39771188	         -0.83825066	         -0.25753598	          1.06927582	          0.13823327	         -0.20698539	          0.09593101	        -36.50853409	         51.94740871	        -41.24775387	       -101.68729366	         84.46761918	         -3.86610346	          7.22768532	          2.96830422	          9.46160584	         27.57821854	          7.21245390	         -2.39523171	         -0.04101385	
          6.50000000	          0.00000018	          0.00000062	         -0.00000005	          0.00000076	         -0.00000005	          0.00000011	        -90.36517643	         25.85718394	        -14.86834531	         84.22786417	         -2.53866155	         -3.03413743	         17.95589109	        -21.92462597	         -1.17177767	         -0.79789455	          0.98518836	          0.32257840	         -0.16336394	          0.12966170	        -25.38059632	         46.41389562	        -60.40401106	       -113.52672576	         96.77366879	         35.75437603	        -15.94672853	        -34.97249115	         23.23342325	         39.20966311	         14.42976197	          5.59576929	          0.87439288	
          6.51000000	          0.00000022	          0.00000098	         -0.00000014	         -0.00000002	          0.00000153	          0.00000047	        -89.42250773	         24.26878657	        -14.92584845	         95.99962679	         21.35399530	         -1.12023019	         27.59707613	        -24.96791254	         -0.76128658	         -0.58422725	          0.75114628	          0.55434754	         -0.15283534	          0.05926694	        -50.74910580	         12.79393112	        -84.16656023	       -104.03065244	         51.92692981	         10.37753498	        -31.98854501	        -26.40214709	         35.36112371	         -8.73099329	          1.31512247	          4.14289719	          1.85874193	
